<?xml version="1.0" encoding="UTF-8"?> <!-- Generator: Adobe Illustrator 19.0.0, SVG Export Plug-In . SVG Version: 6.00 Build 0) --> <svg xmlns="http://www.w3.org/2000/svg" xmlns:xlink="http://www.w3.org/1999/xlink" id="layer" x="0px" y="0px" viewBox="-153 -46 652 652" style="enable-background:new -153 -46 652 652;" xml:space="preserve"> <style type="text/css"> .st0{fill:#F92586;} </style> <path class="st0" d="M-41.4,217.4h32.1c0.7,0,1.2,0.5,1.2,1.2v34.5c0,0.7,0.5,1.2,1.1,1.3c0.4,0,0.8-0.1,1-0.4 c5.3-5.8,13-10.5,23.3-10.5c17.5,0,28.4,11.6,28.4,30.2v53.5c0,0.7-0.5,1.2-1.2,1.2H12.4c-0.7,0-1.2-0.5-1.2-1.2v-42.4 c0-7.1-4.3-11.3-9.4-11.3s-9.9,4.1-9.9,11.3v42.4c0,0.7-0.5,1.2-1.2,1.2h-32.1c-0.7,0-1.2-0.5-1.2-1.2V218.6 C-42.6,218-42.1,217.4-41.4,217.4C-41.4,217.4-41.4,217.4-41.4,217.4z"></path> <path class="st0" d="M409.7,245.4h32.1c0.7,0,1.2,0.5,1.2,1.2v10.2c0,0.7,0.5,1.2,1.1,1.3c0.5,0,1-0.2,1.2-0.7 c4.6-8.2,11.5-13.4,22.5-13.3c0.7,0,1.2,0.5,1.2,1.2v34.2c0,0.7-0.5,1.2-1.2,1.2h-2.4c-14.6,0-22.3,8.1-22.3,26.5v19.9 c0,0.7-0.5,1.2-1.2,1.2h-32.1c-0.7,0-1.2-0.5-1.2-1.2v-80.5C408.6,246,409.1,245.4,409.7,245.4C409.7,245.4,409.7,245.4,409.7,245.4 z"></path> <path class="st0" d="M396.7,254.8c-7.3-7.3-18.2-10.8-35.1-10.8c-13.9,0-24.6,2.3-33.9,5.7c-0.6,0.2-0.9,0.9-0.8,1.5l5.4,20.6 c0.2,0.6,0.8,1,1.4,0.9c0.1,0,0.1,0,0.2-0.1c6.9-2.6,13.7-4.2,21.7-4.2c10.6,0,15.4,4.4,15.4,12c0,0.5-0.4,1-1,1c-0.1,0-0.2,0-0.3,0 c-4.2-1.4-12.1-2.6-18.4-2.6c-19.3,0-31.6,9.3-31.6,25.8v0.3c0,16.4,11.2,25.5,27.2,25.5c9.2,0,16.3-3.2,21.8-8.3 c0.5-0.5,1.2-0.5,1.7,0c0.2,0.2,0.4,0.6,0.4,0.9v4.2c0,0.7,0.5,1.2,1.2,1.2h32.1c0.7,0,1.2-0.5,1.2-1.2v-46.1 C405.4,269.1,402.9,261.1,396.7,254.8z M360.9,311.9c-5.7,0-10.4-4.7-10.4-10.4c0-5.7,4.7-10.4,10.4-10.4s10.4,4.7,10.4,10.4 S366.7,311.9,360.9,311.9L360.9,311.9z"></path> <path class="st0" d="M319.1,217.4H287c-0.7,0-1.2,0.5-1.2,1.2v33.1c0,0.7-0.5,1.2-1.1,1.3c-0.4,0-0.7-0.1-0.9-0.4 c-5.1-5-11.8-9.2-22.9-9.2c-19.6,0-35.4,17.5-35.4,43.8v0.3c0,25.4,15.7,42.9,35.7,42.9c12.6,0,19-6.1,24.6-12.2v9 c0,0.7,0.5,1.2,1.2,1.2h32.1c0.7,0,1.2-0.5,1.2-1.2V218.6C320.3,218,319.8,217.4,319.1,217.4C319.1,217.4,319.1,217.4,319.1,217.4z M274.1,297.9c-6.8,0-12.2-5.5-12.2-12.2s5.5-12.2,12.2-12.2c6.8,0,12.2,5.5,12.2,12.2C286.4,292.4,280.9,297.9,274.1,297.9 L274.1,297.9z"></path> <path class="st0" d="M224.2,217.4h-32.1c-0.7,0-1.2,0.5-1.2,1.2v33.1c0,0.7-0.5,1.2-1.1,1.3c-0.4,0-0.7-0.1-0.9-0.4 c-5.1-5-11.8-9.2-22.9-9.2c-19.6,0-35.4,17.5-35.4,43.8v0.3c0,25.4,15.7,42.9,35.7,42.9c12.6,0,19-6.1,24.6-12.2v9 c0,0.7,0.5,1.2,1.2,1.2h32.1c0.7,0,1.2-0.5,1.2-1.2V218.6C225.4,218,224.9,217.4,224.2,217.4C224.2,217.4,224.2,217.4,224.2,217.4z M179.9,297.9c-6.8,0-12.2-5.5-12.2-12.2s5.5-12.2,12.2-12.2c6.8,0,12.2,5.5,12.2,12.2C192.1,292.4,186.6,297.9,179.9,297.9z"></path> <path class="st0" d="M127.7,310.8L111,297.5c-0.5-0.4-1.2-0.4-1.6,0.1c-5.2,5.1-10.2,7.7-16.1,7.7c-6.8,0-12.3-3.2-15-9.4 c-0.3-0.6,0-1.3,0.6-1.6c0.2-0.1,0.3-0.1,0.5-0.1H131c0.2-1.8,0.2-3.9,0.2-5.8c0-25.2-13.7-45.8-43.2-45.8 c-24.9,0-42.7,18.8-42.7,43.6v0.3c0,25.8,18.4,43,45.6,43c17.4,0,28.9-7,37.1-17.1C128.3,312,128.3,311.3,127.7,310.8 C127.8,310.8,127.8,310.8,127.7,310.8z M89.9,268.5c5.8,0,10.7,4.3,11.4,10.1c0.1,0.7-0.4,1.3-1.1,1.3c0,0-0.1,0-0.1,0H79.8 c-0.7,0-1.2-0.5-1.2-1.2c0,0,0-0.1,0-0.1C79.2,272.8,84.1,268.5,89.9,268.5z"></path> <path class="st0" d="M-71.6,294c-0.6-0.3-1.3-0.2-1.6,0.4c-3.2,4.7-6.6,7.4-12.3,7.4c-6.5,0-11.8-5.7-12.3-13.8c0-0.4,0-0.7,0-1.1 v-0.3c0-8.2,5.5-14.6,12.8-14.6c5.3,0,8.8,2.7,11.6,7.3c0.3,0.6,1.1,0.8,1.6,0.4c0,0,0,0,0,0l22.7-12.8l0,0c0.5-0.3,0.8-1,0.5-1.6 c-6.5-13-19.3-22-37.1-22c-27.1,0-45.3,20.2-45.3,43.5v0.3c0,0.4,0,0.7,0,1.1c0.6,22.8,18.8,42.1,43.6,42.1c8.3,0,15.4-1.6,21.4-4.5 c0.6-0.3,0.9-0.9,0.6-1.5c-0.3-0.8-0.4-1.7-0.4-2.6c0.1-4.5,3.5-8.2,7.9-8.6c1.6-0.2,3.3,0.2,4.7,1.1c0.5,0.3,1.2,0.2,1.6-0.3 c1.1-1.4,2.1-2.9,3-4.5l0.5-0.8c0.3-0.6,0.2-1.3-0.4-1.7c0,0,0,0-0.1,0L-71.6,294z"></path> <path class="st0" d="M-50.8,320.5c-4.5,0.5-7.9,4.2-8,8.6c0,1.2,0.3,2.4,0.9,3.5c4.9-2.5,9.2-6.1,12.6-10.4 C-46.8,321-48.8,320.3-50.8,320.5z"></path> </svg> 