<?xml version="1.0" encoding="UTF-8"?> <svg xmlns="http://www.w3.org/2000/svg" xmlns:xlink="http://www.w3.org/1999/xlink" width="107px" height="45px" viewBox="0 0 107 45"> <!-- Generator: Sketch 51.1 (57501) - http://www.bohemiancoding.com/sketch --> <title>header-logo</title> <desc>Created with Sketch.</desc> <defs> <polygon id="path-1" points="0 45 107 45 107 0 0 0"></polygon> </defs> <g id="Symbols" stroke="none" stroke-width="1" fill="none" fill-rule="evenodd"> <g id="Menu-fm-HOMEPAGE-ONLY-initial" transform="translate(-412.000000, -25.000000)"> <g id="Group-24"> <g id="header-logo" transform="translate(412.000000, 25.000000)"> <path d="M82.0528162,34.7508806 L82.1912475,34.7018507 C82.6352975,34.6521493 82.7175537,34.5856567 82.7175537,34.1396866 L82.7175537,26.3694627 L82.085585,26.3043134 L81.6054225,24.9979701 L89.3341662,24.9979701 L89.3341662,27.0075224 L87.73786,27.4890896 L87.73786,26.657597 C87.73786,26.3432687 87.6395538,26.4695373 87.30986,26.4695373 L84.72581,26.4695373 L84.72581,29.6101343 L88.6593975,29.6101343 L88.6593975,31.1307313 L84.72581,31.1307313 L84.72581,34.5191642 L87.4910912,34.5191642 C87.8201163,34.5191642 87.8863225,34.4036418 87.8863225,34.073194 L87.8863225,33.9375224 L89.4826288,33.4626716 L89.4826288,35.991403 L81.571985,35.991403 L82.0528162,34.7508806 Z" id="Fill-1" fill="#FFFFFF"></path> <path d="M96.866565,32.9491343 C96.866565,31.8912985 95.9777962,31.5111493 94.7927712,31.1974925 C93.2620025,30.8005522 91.6650275,30.1557761 91.6650275,28.0394328 C91.6650275,26.0224925 93.1957962,24.7994328 95.5170275,24.7994328 C96.5703087,24.7994328 97.7553337,24.9975672 98.594615,25.3945075 L98.594615,26.9768955 L96.9983087,27.5195821 L96.9983087,27.0312985 C96.9983087,26.7505522 96.96554,26.6175672 96.7020525,26.5349552 C96.4552837,26.469806 95.9122587,26.4033134 95.5330775,26.4033134 C94.6610275,26.4033134 93.75554,26.7176418 93.75554,27.8083881 C93.75554,28.8662239 94.6443087,29.1805522 95.9122587,29.5768209 C97.4263087,30.0731642 98.9898462,30.6017463 98.9898462,32.7839104 C98.9898462,34.9660746 97.5413337,36.1891343 94.9077962,36.1891343 C93.7722587,36.1891343 92.554465,36.0407015 91.6489775,35.6269701 L91.6489775,34.0056269 L93.2452837,33.4327164 L93.2452837,33.9411493 C93.2452837,34.2225672 93.2947712,34.354209 93.54154,34.4374925 C93.8050275,34.5194328 94.38149,34.5859254 94.8422587,34.5859254 C95.9122587,34.5859254 96.866565,34.2386866 96.866565,32.9491343" id="Fill-3" fill="#FFFFFF"></path> <mask id="mask-2" fill="white"> <use xlink:href="#path-1"></use> </mask> <g id="Clip-6"></g> <path d="M0,45 L107,45 L107,0 L0,0 L0,45 Z M2.00625,42.9850746 L104.99375,42.9850746 L104.99375,2.01492537 L2.00625,2.01492537 L2.00625,42.9850746 Z" id="Fill-5" fill="#FFFFFF" mask="url(#mask-2)"></path> <path d="M12.325865,25.0127463 L15.00889,31.8856567 L15.0577088,31.8856567 L17.5829088,25.0127463 L20.618365,25.0127463 L21.0991962,26.2687164 L20.6377587,26.3184179 C20.3247838,26.3513284 20.1602713,26.5333433 20.17699,26.847 L20.6711963,34.6501343 L21.5265275,34.6998358 L22.0073588,36.0055075 L17.8891963,36.0055075 L17.8891963,34.7488657 L18.4155025,34.6998358 C18.7451963,34.6830448 18.7946838,34.5346119 18.777965,34.1215522 L18.46499,27.9216269 L18.4322213,27.9216269 L15.7491963,34.2834179 L14.2351463,34.7656567 L11.6510963,27.9713284 L11.6183275,27.9713284 L11.255865,34.6501343 L12.0951463,34.6998358 L12.0951463,36.0055075 L8.0097525,36.0055075 L8.49058375,34.7488657 L8.98412125,34.6998358 C9.29709625,34.6501343 9.41279,34.5507313 9.42884,34.1376716 L9.955815,26.3681194 L9.08309625,26.3184179 L9.5639275,25.0127463 L12.325865,25.0127463 Z" id="Fill-7" fill="#FFFFFF" mask="url(#mask-2)"></path> <path d="M27.6270656,31.4779701 L30.7213719,31.4779701 L29.2073219,26.7999851 L29.1578344,26.7999851 L27.6270656,31.4779701 Z M23.5089031,35.991403 L23.9897344,34.7508806 L24.3842969,34.7018507 C24.7628094,34.6521493 24.8290156,34.4701343 24.9440406,34.1887164 L27.6110156,26.4030448 L26.7543469,26.3043134 L27.2351781,24.9979701 L30.3428594,24.9979701 L33.7501406,34.6192388 L34.3493406,34.6850597 L34.8301719,35.991403 L30.6725531,35.991403 L30.6725531,34.7508806 L31.2149094,34.6850597 C31.5278844,34.6521493 31.6268594,34.4862537 31.5118344,34.172597 L31.0510656,32.8662537 L27.2980406,32.8662537 L26.7055281,34.6353582 L27.5448094,34.6850597 L27.5448094,35.991403 L23.5089031,35.991403 Z" id="Fill-8" fill="#FFFFFF" mask="url(#mask-2)"></path> <path d="M42.592955,34.1927463 L42.592955,31.5639403 L41.763705,31.4974478 L41.2828737,30.2085672 L45.5983175,30.2085672 L45.3582363,31.4484179 L44.9135175,31.4974478 C44.63398,31.5478209 44.5022362,31.6465522 44.5022362,31.977 L44.5022362,35.1511791 C43.5806987,35.7959552 42.2144425,36.1761045 40.76593,36.1761045 C37.5893675,36.1761045 35.7951112,34.3411791 35.7951112,30.5061045 C35.7951112,26.2411791 38.296905,24.786403 41.1444425,24.786403 C42.4612112,24.786403 43.7284925,25.0671493 44.4527487,25.4472985 L44.4527487,26.9336418 L42.8564425,27.5320746 L42.8564425,27.0511791 C42.8564425,26.7697612 42.8236738,26.6381194 42.5601863,26.5555075 C42.2472112,26.4728955 41.7041862,26.423194 41.2273675,26.423194 C38.9061362,26.423194 37.8695737,27.9605821 37.8695737,30.4067015 C37.8695737,33.0348358 38.724905,34.5890149 40.8154175,34.5890149 C41.4574175,34.5890149 42.1983925,34.4405821 42.592955,34.1927463" id="Fill-9" fill="#FFFFFF" mask="url(#mask-2)"></path> <path d="M57.2702119,35.5084925 L55.3609306,35.991403 L50.5218556,28.0062537 L50.4884181,28.0062537 L50.4884181,34.6353582 L51.3939056,34.6850597 L51.3939056,35.991403 L47.4175181,35.991403 L47.8976806,34.7508806 L48.1845744,34.6850597 C48.4641119,34.6353582 48.5791369,34.5695373 48.5791369,34.2222985 L48.5791369,26.3533433 L47.4830556,26.3043134 L47.9638869,24.9979701 L50.6368806,24.9979701 L55.3442119,32.8501343 L55.3769806,32.8501343 L55.3769806,26.3533433 L54.4714931,26.3043134 L54.4714931,24.9979701 L58.4318306,24.9979701 L57.9516681,26.2546119 L57.6814931,26.3043134 C57.3685181,26.3533433 57.2702119,26.4198358 57.2702119,26.7999851 L57.2702119,35.5084925 Z" id="Fill-10" fill="#FFFFFF" mask="url(#mask-2)"></path> <path d="M63.2501075,31.4779701 L66.3444138,31.4779701 L64.8303638,26.7999851 L64.7808763,26.7999851 L63.2501075,31.4779701 Z M59.372695,35.991403 L59.8528575,34.7508806 L60.0073388,34.7018507 C60.3858513,34.6521493 60.4520575,34.4701343 60.5670825,34.1887164 L63.2340575,26.4030448 L62.3773888,26.3043134 L62.85822,24.9979701 L65.9659013,24.9979701 L69.3731825,34.6192388 L69.9723825,34.6850597 L70.4532138,35.991403 L66.2949263,35.991403 L66.2949263,34.7508806 L66.8379513,34.6850597 C67.1509263,34.6521493 67.2499013,34.4862537 67.1348763,34.172597 L66.6741075,32.8662537 L62.9210825,32.8662537 L62.32857,34.6353582 L63.1678513,34.6850597 L63.1678513,35.991403 L59.372695,35.991403 Z" id="Fill-11" fill="#FFFFFF" mask="url(#mask-2)"></path> <path d="M74.4235825,26.4695373 L72.9088638,26.4695373 C72.5805075,26.4695373 72.4982513,26.6179701 72.4982513,26.8993881 L72.4982513,27.5193134 L70.9173263,26.9772985 L70.9173263,24.9979701 L79.9213762,24.9979701 L79.9213762,26.9772985 L78.3244012,27.5193134 L78.3244012,26.9155075 C78.3244012,26.6340896 78.2588637,26.4695373 77.91312,26.4695373 L76.4318387,26.4695373 L76.4318387,34.6353582 L77.3600637,34.6850597 L77.8402263,35.991403 L72.9817575,35.991403 L73.4625888,34.7508806 L73.9628137,34.6850597 C74.3413263,34.6682687 74.4235825,34.5527463 74.4235825,34.172597 L74.4235825,26.4695373 Z" id="Fill-12" fill="#FFFFFF" mask="url(#mask-2)"></path> <polygon id="Fill-13" fill="#FFFFFF" mask="url(#mask-2)" points="9.30826437 8.99502985 16.4217581 8.99502985 16.4217581 9.70159701 10.0733144 9.70159701 10.0733144 13.742194 15.3203269 13.742194 15.3203269 14.4648806 10.0733144 14.4648806 10.0733144 19.7493582 9.30826437 19.7493582"></polygon> <polygon id="Fill-14" fill="#FFFFFF" mask="url(#mask-2)" points="22.5816813 19.7496269 23.3467313 19.7496269 23.3467313 8.99529851 22.5816813 8.99529851"></polygon> <polygon id="Fill-15" fill="#FFFFFF" mask="url(#mask-2)" points="30.33343 8.99502985 31.0061925 8.99502985 38.2266862 18.412791 38.2266862 8.99502985 38.9917363 8.99502985 38.9917363 19.7493582 38.3336862 19.7493582 31.09848 10.3161493 31.09848 19.7493582 30.33343 19.7493582"></polygon> <path d="M52.7238487,15.939 L50.01608,9.93250746 L47.29293,15.939 L52.7238487,15.939 Z M49.6643175,8.93310448 L50.3678425,8.93310448 L55.2022362,19.7492239 L54.4064237,19.7492239 L52.9993737,16.6153433 L47.0180737,16.6153433 L45.610355,19.7492239 L44.8152112,19.7492239 L49.6643175,8.93310448 Z" id="Fill-16" fill="#FFFFFF" mask="url(#mask-2)"></path> <polygon id="Fill-17" fill="#FFFFFF" mask="url(#mask-2)" points="60.9946812 8.99502985 61.6674437 8.99502985 68.8886062 18.412791 68.8886062 8.99502985 69.6529875 8.99502985 69.6529875 19.7493582 68.9956062 19.7493582 61.7597312 10.3161493 61.7597312 19.7493582 60.9946812 19.7493582"></polygon> <path d="M76.1036162,14.3720597 C76.1036162,11.1307164 78.4596225,8.81086567 81.5037725,8.81086567 C82.66606,8.81086567 83.6912537,9.08758209 84.562635,9.65579104 L84.562635,10.4691493 C83.6604912,9.88549254 82.6968225,9.54765672 81.5191537,9.54765672 C78.9337662,9.54765672 76.8840475,11.5760149 76.8840475,14.3720597 C76.8840475,17.1681045 78.9337662,19.2119104 81.5338662,19.2119104 C82.8192037,19.2119104 83.9052537,18.8122836 84.8080662,18.0902687 L84.8080662,18.935194 C83.920635,19.5954179 82.8192037,19.9339254 81.5037725,19.9339254 C78.474335,19.9339254 76.1036162,17.6140746 76.1036162,14.3720597" id="Fill-18" fill="#FFFFFF" mask="url(#mask-2)"></path> <polygon id="Fill-19" fill="#FFFFFF" mask="url(#mask-2)" points="90.87617 8.99502985 98.0659013 8.99502985 98.0659013 9.70159701 91.64122 9.70159701 91.64122 13.6038358 96.9497575 13.6038358 96.9497575 14.3258507 91.64122 14.3258507 91.64122 19.042791 98.3106638 19.042791 98.3106638 19.7493582 90.87617 19.7493582"></polygon> </g> </g> </g> </g> </svg> 