<?xml version="1.0" encoding="UTF-8"?> <svg xmlns="http://www.w3.org/2000/svg" width="150" height="31" viewBox="0 0 150 31"> <defs> <clipPath id="a"> <path d="M0 30.4h149.884V.15H0z"></path> </clipPath> </defs> <path fill="#1a1a1a" d="M29.35.666h.675V.2h-.675zM34.924.945h.369a.736.736 0 00.14-.367V.2h-.703v.46h.303a.952.952 0 01-.11.285M110.219 27.443h.29c3.078 0 3.682-2.046 3.682-3.174V21.36h-1.877v2.796c0 .773-.355 1.732-1.966 1.732-1.636 0-1.982-.959-1.982-1.732V21.36h-1.886v2.909c0 1.128.524 3.174 3.739 3.174M141.4 27.355h6.043v-1.49h-4.166V21.36H141.4zM97.02 24.225c0-1.072.427-2.965 4.222-2.965h.347c3.77 0 4.214 1.893 4.214 2.965v.242c0 1.055-.435 2.997-4.214 2.997h-.347c-3.795 0-4.222-1.942-4.222-2.997zm1.966.153c0 .685.403 1.628 2.425 1.628 2.015 0 2.426-.919 2.426-1.612v-.112c0-.693-.403-1.572-2.426-1.572-2.054 0-2.425.879-2.425 1.572zM89.57 24.849c0 1.136.685 2.594 3.183 2.594h.451c2.554 0 3.143-1.684 3.143-2.924V21.36H94.46v3.11c0 .91-.46 1.483-1.442 1.483h-.097c-1.297 0-1.426-.887-1.45-1.152H89.57zM137.503 21.36l3.207 5.995h-2.022l-.564-1.096h-3.634l-.54 1.096h-1.91l3.03-5.995zm-.076 3.541l-1.157-2.242-1.108 2.242zM125.765 21.36h-2.095v5.995h1.853v-3.973l4.07 3.973h1.853V21.36h-1.854v3.77zM103.934 17.446c0 .774-.355 1.732-1.966 1.732-1.636 0-1.982-.958-1.982-1.732V14.65H98.1v2.909c0 1.128.524 3.174 3.739 3.174h.29c3.078 0 3.682-2.046 3.682-3.174V14.65h-1.877zM137.7 15.797h.128c1.564 0 1.7.483 1.733.717h1.95v-.08c0-.903-.645-1.894-3.481-1.894h-.556c-2.724 0-3.264.935-3.264 1.83v.071c0 .935.685 1.693 2.926 1.757l1.03.024c1.387.033 1.572.258 1.572.605 0 .322-.177.636-1.757.636h-.112c-1.547 0-1.757-.596-1.781-.95h-1.958v.088c0 .79.363 2.143 3.505 2.143h.556c3.013 0 3.513-1.015 3.513-2.006v-.113c0-1.192-.91-1.732-3.167-1.78l-1.007-.017c-1.233-.016-1.386-.266-1.386-.515 0-.25.105-.516 1.556-.516"></path> <g clip-path="url(#a)"> <path fill="#1a1a1a" d="M114.91 20.645h1.877V14.65h-1.877z"></path> </g> <g clip-path="url(#a)"> <path fill="#1a1a1a" d="M118.02 14.65v5.995h1.853v-3.973l4.07 3.973h1.853V14.65h-1.854v3.77l-3.827-3.77z"></path> </g> <g clip-path="url(#a)"> <path fill="#1a1a1a" d="M146.161 19.463h-.112c-1.547 0-1.757-.596-1.781-.95h-1.958v.088c0 .79.363 2.143 3.505 2.143h.556c3.014 0 3.513-1.015 3.513-2.006v-.113c0-1.192-.91-1.732-3.166-1.78l-1.008-.017c-1.233-.016-1.386-.266-1.386-.515 0-.25.105-.516 1.556-.516h.129c1.563 0 1.7.483 1.732.717h1.95v-.08c0-.903-.645-1.894-3.481-1.894h-.556c-2.724 0-3.264.934-3.264 1.83v.071c0 .935.685 1.693 2.926 1.757l1.03.024c1.387.032 1.572.258 1.572.605 0 .322-.177.636-1.757.636"></path> </g> <g clip-path="url(#a)"> <path fill="#1a1a1a" d="M97.294 16.133c0 .773-.66 1.087-.95 1.168.41.105 1.289.46 1.289 1.507v.112c0 .951-.54 1.725-2.482 1.725H89.97V14.65h5.133c1.716 0 2.191.66 2.191 1.37zm-5.447.767h2.925c.522 0 .651-.244.651-.488v-.017c0-.252-.129-.48-.65-.48h-2.926zm3.826 1.82c0-.259-.12-.557-.74-.557h-3.086v1.176h3.086c.627 0 .74-.346.74-.588z"></path> </g> <g clip-path="url(#a)"> <path fill="#1a1a1a" d="M126.98 20.645h6.398V19.25h-4.545v-.983h4.36v-1.37h-4.36v-.886h4.464V14.65h-6.317z"></path> </g> <g clip-path="url(#a)"> <path fill="#1a1a1a" d="M110.272 19.463h-.113c-1.547 0-1.757-.596-1.781-.95h-1.958v.088c0 .79.363 2.143 3.505 2.143h.556c3.014 0 3.513-1.015 3.513-2.006v-.113c0-1.192-.91-1.732-3.166-1.78l-1.008-.017c-1.232-.016-1.386-.266-1.386-.515 0-.25.105-.516 1.556-.516h.129c1.563 0 1.7.483 1.732.717h1.95v-.08c0-.903-.645-1.894-3.481-1.894h-.556c-2.723 0-3.263.934-3.263 1.83v.071c0 .935.685 1.693 2.925 1.757l1.03.024c1.387.032 1.572.258 1.572.605 0 .322-.177.636-1.756.636"></path> </g> <g clip-path="url(#a)"> <path fill="#1a1a1a" d="M114.553 10.767c0 1.056-.435 2.997-4.214 2.997h-.347c-3.795 0-4.222-1.941-4.222-2.997v-.242c0-1.071.427-2.965 4.222-2.965h.347c3.77 0 4.214 1.894 4.214 2.965zm-1.966-.185c0-.693-.403-1.572-2.426-1.572-2.054 0-2.425.879-2.425 1.572v.096c0 .685.403 1.628 2.425 1.628 2.015 0 2.426-.919 2.426-1.612z"></path> </g> <g clip-path="url(#a)"> <path fill="#1a1a1a" d="M102.446 7.66c2.151 0 2.796.854 2.796 1.95v.08c0 1.072-.653 1.967-2.796 1.967h-2.619v1.998H97.95V7.66zm.828 1.997c0-.4-.273-.633-.868-.633h-2.579v1.281h2.58c.586 0 .867-.224.867-.624z"></path> </g> <g clip-path="url(#a)"> <path fill="#1a1a1a" d="M93.511 12.483H93.4c-1.547 0-1.757-.596-1.781-.95H89.66v.088c0 .79.363 2.143 3.505 2.143h.556c3.014 0 3.513-1.015 3.513-2.006v-.113c0-1.192-.91-1.732-3.166-1.78l-1.008-.017c-1.232-.016-1.386-.266-1.386-.515 0-.25.105-.516 1.556-.516h.128c1.564 0 1.7.483 1.733.717h1.95v-.08c0-.903-.645-1.894-3.481-1.894h-.556c-2.724 0-3.263.935-3.263 1.83v.071c0 .935.685 1.693 2.925 1.757l1.03.024c1.387.032 1.572.258 1.572.605 0 .322-.177.636-1.757.636"></path> </g> <g clip-path="url(#a)"> <path fill="#1a1a1a" d="M122.657 9.312c0 .854-.717 1.192-1.112 1.313.613.161 1.136.612 1.136 1.378v.878c0 .484.065.637.113.734v.04h-1.91c-.056-.073-.088-.17-.088-.379v-.693c0-.733-.322-1.055-1.249-1.055h-2.45v2.127h-1.877V7.66h4.835c1.998 0 2.602.693 2.602 1.555zM120.7 9.6c0-.312-.21-.576-.757-.576h-2.845v1.168h2.845c.532 0 .757-.256.757-.584z"></path> </g> <g clip-path="url(#a)"> <path fill="#1a1a1a" d="M134.572 12.483h-.113c-1.547 0-1.757-.596-1.781-.95h-1.958v.088c0 .79.363 2.143 3.505 2.143h.556c3.014 0 3.513-1.015 3.513-2.006v-.113c0-1.192-.91-1.732-3.166-1.78l-1.008-.017c-1.232-.016-1.386-.266-1.386-.515 0-.25.105-.516 1.556-.516h.129c1.563 0 1.7.483 1.732.717h1.95v-.08c0-.903-.645-1.894-3.481-1.894h-.556c-2.723 0-3.263.935-3.263 1.83v.071c0 .935.685 1.693 2.925 1.757l1.031.024c1.386.032 1.571.258 1.571.605 0 .322-.177.636-1.756.636"></path> </g> <g clip-path="url(#a)"> <path fill="#1a1a1a" d="M123.17 9.078h2.578v4.577h1.894V9.078h2.587V7.66h-7.059z"></path> </g> <g clip-path="url(#a)"> <path fill="#da202c" d="M14.56 4.97C8.471 4.97.376 5.72.376 12.205v.31c0 6.756 9.051 7.039 12.025 7.132l4.77.138c4.97.126 6.647.866 6.647 2.93v.035c0 2.155-2.001 3.034-6.906 3.034H16.6c-4.142 0-6.485-1.221-6.967-3.63H0c.16 5.471 5.231 8.245 15.08 8.245h3.146c3.982 0 7.227-.398 9.648-1.184v-13.73c-1.884-.486-4.278-.76-7.313-.834l-4.631-.104c-4.463-.064-6.201-.788-6.201-2.584v-.035c0-2.104 2.304-2.515 6.284-2.515h.345c3.979 0 6.18.894 6.725 2.731h4.79V6.399c-2.477-.948-5.92-1.429-10.235-1.429z"></path> </g> <g clip-path="url(#a)"> <path fill="#da202c" d="M57.626 27.196c.52.593 1.12 1.134 1.783 1.61-1.646.737-3.858 1.11-6.582 1.11H29.1V5.42h23.588c4.058 0 8.895.907 8.895 5.23v.38c0 2.812-2.48 4.12-3.947 4.448l-2.65.595 2.649.603c1.085.247 2.577.763 3.721 1.83h-6.463v.822c0 2.17.474 5.296 2.733 7.868zM37.69 14.883h12.024c2.68 0 3.242-1.309 3.242-2.407v-.068c0-1.574-1.091-2.373-3.242-2.373H37.691zm16.303 7.28c0-1.807-1.23-2.724-3.657-2.724H37.691v5.654h12.646c3.023 0 3.657-1.537 3.657-2.827z"></path> </g> <g clip-path="url(#a)"> <path fill="#da202c" d="M77.422 17.771c0 4.12-2.244 6.388-6.318 6.388h-.277c-4.45 0-5.836-2.376-6.204-4.426H56.13c.248 9.187 8.675 10.563 13.694 10.563h2.11c5.43 0 9.343-1.423 11.629-4.23 1.626-1.996 2.45-4.717 2.45-8.087V5.42h-8.59z"></path> </g> <g clip-path="url(#a)"> <path fill="#1a1a1a" d="M36.798 2.5h.124c.9 0 1.075-.26 1.075-.56v-.018c0-.324-.154-.497-.908-.512l-.291-.006c-.285-.006-.343-.058-.343-.13v-.007c0-.078.064-.12.388-.12h.003c.36 0 .397.106.403.166h.687v-.021c0-.255-.193-.512-1.02-.512h-.121c-.894 0-1.03.26-1.03.509v.018c0 .24.17.49.878.509l.291.005c.318.007.358.061.358.143v.006c0 .079-.046.155-.422.155h-.006c-.397 0-.415-.164-.418-.222h-.696v.019c0 .209.097.578 1.048.578"></path> </g> <g clip-path="url(#a)"> <path fill="#1a1a1a" d="M3.437 2.492h.21c1.132 0 1.32-.382 1.32-.754v-.042c0-.448-.343-.651-1.19-.67l-.38-.006c-.463-.006-.52-.1-.52-.194s.04-.194.584-.194h.049c.588 0 .64.182.651.27h.733v-.03c0-.34-.242-.712-1.308-.712h-.21C2.354.16 2.15.51 2.15.848v.027c0 .352.258.637 1.1.66l.387.01c.521.012.59.097.59.227 0 .12-.066.239-.66.239h-.042c-.582 0-.66-.224-.67-.357H2.12v.033c0 .296.136.805 1.317.805"></path> </g> <g clip-path="url(#a)"> <path fill="#1a1a1a" d="M23.167 2.492h.209c1.133 0 1.32-.382 1.32-.754v-.042c0-.448-.342-.651-1.19-.67l-.378-.006c-.464-.006-.521-.1-.521-.194s.039-.194.584-.194h.049c.587 0 .64.182.651.27h.733v-.03c0-.34-.242-.712-1.308-.712h-.21c-1.023 0-1.226.35-1.226.688v.027c0 .352.258.637 1.1.66l.387.01c.521.012.59.097.59.227 0 .12-.066.239-.66.239h-.042c-.582 0-.66-.224-.67-.357h-.735v.033c0 .296.136.805 1.317.805"></path> </g> <g clip-path="url(#a)"> <path fill="#1a1a1a" d="M5.598 1.991c0 .282.109.464.403.464h.584v-.448H6.4c-.115 0-.136-.055-.136-.143v-.59h.32V.826h-.32V.35h-.666v.476H5.28v.448h.318z"></path> </g> <g clip-path="url(#a)"> <path fill="#1a1a1a" d="M25.805 1.686c0-.254.179-.442.467-.442.267 0 .372.17.372.406v.805h.682v-.769c0-.254.178-.442.466-.442.267 0 .37.17.37.406v.805h.68v-1.03c0-.305-.208-.635-.75-.635h-.024a1.15 1.15 0 00-.821.324c-.1-.182-.303-.324-.651-.324h-.021c-.47 0-.706.242-.776.318V.826h-.669v1.63h.675z"></path> </g> <g clip-path="url(#a)"> <path fill="#1a1a1a" d="M32.865 1.684c0-.267.197-.443.5-.443.297 0 .436.158.436.406v.806h.682v-1.03c0-.315-.23-.636-.794-.636h-.021c-.485 0-.73.24-.803.309V.2h-.675v2.253h.675z"></path> </g> <g clip-path="url(#a)"> <path fill="#1a1a1a" d="M29.35 2.45h.675V.82h-.675z"></path> </g> <g clip-path="url(#a)"> <path fill="#1a1a1a" d="M30.748 1.991c0 .282.109.464.402.464h.585v-.448h-.185c-.115 0-.136-.055-.136-.143v-.59h.32V.826h-.32V.35h-.666v.476h-.318v.448h.318z"></path> </g> <g clip-path="url(#a)"> <path fill="#1a1a1a" d="M18.986 2.49c-1.139 0-1.396-.338-1.396-.68v-.034c0-.297.242-.478.697-.545-.194-.146-.3-.327-.3-.506V.701c0-.26.13-.551.954-.551h.16c.827 0 .933.32.933.536V.7c0 .239-.17.445-.736.554l.615.415a1.14 1.14 0 00.151-.585h.663a1.395 1.395 0 01-.314.855 1.7 1.7 0 00.469.051l-.188.493c-.34 0-.551-.069-.748-.178-.242.112-.557.185-.96.185zm.029-1.959c-.289 0-.353.073-.353.173 0 .112.12.197.347.35.239-.072.418-.16.418-.302 0-.13-.074-.22-.412-.22zM18.31 1.7c0 .167.176.343.655.343.194 0 .36-.018.497-.054l-.91-.581c-.13.047-.242.134-.242.283z"></path> </g> <g clip-path="url(#a)"> <path fill="#1a1a1a" d="M15.288 1.991c0 .282.11.464.403.464h.584v-.448h-.185c-.115 0-.136-.055-.136-.143v-.59h.321V.826h-.32V.35h-.667v.476h-.318v.448h.318z"></path> </g> <g clip-path="url(#a)"> <path fill="#1a1a1a" d="M9.42 1.667v-.066c0-.418.248-.821 1.13-.821h.184c.954 0 1.133.481 1.133.878v.112h-1.784c.04.191.203.318.575.318h.003c.449 0 .521-.166.53-.209h.667v.003c0 .222-.146.618-1.118.618h-.172zm.672-.243h1.096c-.042-.166-.207-.265-.548-.265h-.003z"></path> </g> <g clip-path="url(#a)"> <path fill="#1a1a1a" d="M12.22 1.667v-.066c0-.418.248-.821 1.13-.821h.184c.954 0 1.133.481 1.133.878v.112h-1.784c.04.191.203.318.576.318h.003c.448 0 .52-.166.53-.209h.666v.003c0 .222-.146.618-1.118.618h-.172zm.673-.243h1.095c-.042-.166-.207-.265-.548-.265h-.003z"></path> </g> <g clip-path="url(#a)"> <path fill="#1a1a1a" d="M7.715 1.614c0-.213.124-.394.351-.394h.003c.255 0 .346.178.346.39h.65v-.093c0-.419-.19-.727-.662-.727H8.37c-.41 0-.6.233-.661.324V.826H7.04v1.63h.675z"></path> </g> <g clip-path="url(#a)"> <path fill="#1a1a1a" d="M120.854 27.355c-.056-.073-.088-.17-.088-.38v-.692c0-.733-.323-1.055-1.25-1.055h-2.449v2.127h-1.877V21.36h4.835c1.998 0 2.602.693 2.602 1.555v.097c0 .854-.717 1.192-1.112 1.313.613.161 1.136.612 1.136 1.378v.878c0 .484.065.637.113.733v.04zm-.185-4.055c0-.312-.21-.576-.757-.576h-2.845v1.168h2.845c.531 0 .757-.256.757-.584z"></path> </g> </svg> 