<svg width="257" height="256" viewBox="0 0 257 256" fill="none" xmlns="http://www.w3.org/2000/svg">
<g opacity="0.9">
<path d="M28.1238 204.709L19.1333 191.468L49.7274 189.054L28.1238 204.709Z" fill="url(#paint0_linear_9_375)"/>
<path d="M16.2381 185.38L20.1159 154.294L49.7619 189.032L49.7274 189.166L32.5429 191.772L16.2381 185.38Z" fill="url(#paint1_linear_9_375)"/>
<path d="M143.091 105.09L53.2642 47.8862L36.3524 41.5508L133.152 8.02962L143.091 105.09Z" fill="url(#paint2_linear_9_375)"/>
<path d="M135.054 197.244L86.1623 163.374L151.374 159.011L135.054 197.244Z" fill="url(#paint3_linear_9_375)"/>
<path d="M114.322 247.426H85.938L72.4992 235.101L135.054 197.244L114.322 247.426Z" fill="url(#paint4_linear_9_375)"/>
<path d="M151.374 159.011L111.211 126.682L143.091 105.09L151.374 159.011Z" fill="url(#paint5_linear_9_375)"/>
<path d="M72.4992 235.101L86.1623 163.374V163.374L135.054 197.244L72.4992 235.101Z" fill="url(#paint6_linear_9_375)"/>
<path d="M111.211 126.682L53.2642 47.8861L143.091 105.09L111.211 126.682Z" fill="url(#paint7_linear_9_375)"/>
<path d="M86.1623 163.374L111.211 126.682L151.374 159.011L86.1623 163.374Z" fill="url(#paint8_linear_9_375)"/>
<path d="M49.7273 189.053L4.18414 154.294L86.1623 163.374V163.374L49.7273 189.053Z" fill="url(#paint9_linear_9_375)"/>
<path d="M4.18414 154.294L17.8472 119.725L111.211 126.682L4.18414 154.294Z" fill="url(#paint10_linear_9_375)"/>
<path d="M17.8472 119.725L19.7429 84.0145L39.2476 39.5722L53.2642 47.8861L17.8472 119.725Z" fill="url(#paint11_linear_9_375)"/>
<path d="M59.819 231.344L29.0381 203.644L49.7274 189.054L72.4992 235.101L59.819 231.344Z" fill="url(#paint12_linear_9_375)"/>
<path d="M111.211 126.682L17.8472 119.725L53.2642 47.8861L111.211 126.682Z" fill="url(#paint13_linear_9_375)"/>
<path d="M86.1622 163.374L4.18414 154.294L111.211 126.682L86.1622 163.374Z" fill="url(#paint14_linear_9_375)"/>
<path d="M72.4992 235.101L49.7274 189.054V189.053L86.1623 163.374L72.4992 235.101Z" fill="url(#paint15_linear_9_375)"/>
<path d="M213.04 79.0885L216.43 53.2702L228.048 56.4749L213.04 79.0885Z" fill="url(#paint16_linear_9_375)"/>
<path d="M226.232 141.546L213.114 79.1441L243.895 84.346L226.232 141.546Z" fill="url(#paint17_linear_9_375)"/>
<path d="M233.851 155.244L220.733 92.8421L251.514 98.044L233.851 155.244Z" fill="url(#paint18_linear_9_375)"/>
<path d="M236.276 84.319L212.2 79.3602L229.824 49.6174L236.276 84.319Z" fill="url(#paint19_linear_9_375)"/>
<path d="M143.091 235.101L186.41 194.697L222.714 213.841L183.248 227.843L143.091 235.101Z" fill="url(#paint20_linear_9_375)"/>
<path d="M163.586 66.0884L188.313 16.6837L225.069 43.4642L163.586 66.0884Z" fill="url(#paint21_linear_9_375)"/>
<path d="M170.72 247.426H146.388L143.091 235.101L170.72 247.426Z" fill="url(#paint22_linear_9_375)"/>
<path d="M196.226 132.05L163.586 66.0884L213.04 79.0885L196.226 132.05Z" fill="url(#paint23_linear_9_375)"/>
<path d="M186.41 194.697L196.226 132.05L244.046 141.493L186.41 194.697Z" fill="url(#paint24_linear_9_375)"/>
<path d="M128.647 247.426H114.322L135.054 197.244L143.091 235.101L128.647 247.426Z" fill="url(#paint25_linear_9_375)"/>
<path d="M151.374 159.011L143.091 105.09L196.226 132.05L151.374 159.011Z" fill="url(#paint26_linear_9_375)"/>
<path d="M143.091 105.09L133.152 8.02962L163.586 66.0884L143.091 105.09Z" fill="url(#paint27_linear_9_375)"/>
<path d="M135.054 197.244L151.374 159.011L186.41 194.697L135.054 197.244Z" fill="url(#paint28_linear_9_375)"/>
<path d="M143.091 235.101L135.054 197.244L186.41 194.697L143.091 235.101Z" fill="url(#paint29_linear_9_375)"/>
<path d="M163.586 66.0884L133.152 8.02961L188.313 16.6837L163.586 66.0884Z" fill="url(#paint30_linear_9_375)"/>
<path d="M146.388 247.426H128.647L143.091 235.101L146.388 247.426Z" fill="url(#paint31_linear_9_375)"/>
<path d="M196.226 132.05L143.091 105.09L163.586 66.0884L196.226 132.05Z" fill="url(#paint32_linear_9_375)"/>
<path d="M186.41 194.697L151.374 159.011L196.226 132.05L186.41 194.697Z" fill="url(#paint33_linear_9_375)"/>
<path d="M232.314 198.773L222.714 214.145L186.41 194.697L244.046 141.493H244.046L232.314 198.773Z" fill="url(#paint34_linear_9_375)"/>
<path d="M184.619 238.954L170.72 247.426L143.091 235.101L205.648 223.582L206.41 225.56L184.619 238.954Z" fill="url(#paint35_linear_9_375)"/>
<path d="M244.046 141.493H244.046L196.226 132.05L213.04 79.0885L244.046 141.493Z" fill="url(#paint36_linear_9_375)"/>
<path d="M213.04 79.0885L163.586 66.0884L225.069 43.4642L213.04 79.0885Z" fill="url(#paint37_linear_9_375)"/>
</g>
<path fill-rule="evenodd" clip-rule="evenodd" d="M95.8407 115.23L84.7399 131.064L93.5429 143.621L114.99 128.622L95.8407 115.23ZM105.455 101.515L129.601 118.403L154.584 100.931L130.225 66.1828L105.455 101.515ZM164.198 114.645L144.213 128.622L166.496 144.206L175.709 131.064L164.198 114.645ZM156.882 157.921L129.601 138.841L103.157 157.336L130.225 195.946L156.882 157.921ZM42.7524 159.115L62.4172 131.064L42.7524 103.014L57.7312 92.5377L73.5786 115.143L130.185 34.3974L130.292 34.4725L130.219 34.5236L130.285 34.6177L130.348 34.5284L130.259 34.4015L130.264 34.3974L186.871 115.143L202.718 92.5377L217.697 103.014L198.032 131.064L217.697 159.115L202.718 169.591L186.871 146.986L130.264 227.731L130.259 227.727L130.348 227.6L130.285 227.511L130.219 227.605L130.292 227.656L130.185 227.731L73.5786 146.986L57.7312 169.591L42.7524 159.115Z" fill="#262626"/>
<path fill-rule="evenodd" clip-rule="evenodd" d="M0.695221 128C0.695221 198.693 58.071 256 128.848 256C199.624 256 257 198.693 257 128C257 57.3078 199.624 0.000244141 128.848 0.000244141C58.071 0.000244141 0.695221 57.3078 0.695221 128ZM17.4572 128C17.4572 189.446 67.3284 239.258 128.848 239.258C190.367 239.258 240.238 189.446 240.238 128C240.238 66.5541 190.367 16.7422 128.848 16.7422C67.3284 16.7422 17.4572 66.5541 17.4572 128Z" fill="#262626"/>
<defs>
<linearGradient id="paint0_linear_9_375" x1="-57.4203" y1="166.114" x2="181.062" y2="166.114" gradientUnits="userSpaceOnUse">
<stop stop-color="#FBC81F"/>
<stop offset="0.5" stop-color="#F8B60E"/>
</linearGradient>
<linearGradient id="paint1_linear_9_375" x1="-67.6466" y1="99.3781" x2="193.673" y2="99.3781" gradientUnits="userSpaceOnUse">
<stop stop-color="#FBC81F"/>
<stop offset="0.280899" stop-color="#F89D0E"/>
</linearGradient>
<linearGradient id="paint2_linear_9_375" x1="-84.0285" y1="123.713" x2="403.59" y2="123.713" gradientUnits="userSpaceOnUse">
<stop stop-color="#FBD249"/>
<stop offset="1" stop-color="#F8DF03"/>
</linearGradient>
<linearGradient id="paint3_linear_9_375" x1="-84.0285" y1="123.713" x2="403.59" y2="123.713" gradientUnits="userSpaceOnUse">
<stop stop-color="#FBC81F"/>
</linearGradient>
<linearGradient id="paint4_linear_9_375" x1="-84.0286" y1="123.713" x2="403.591" y2="123.713" gradientUnits="userSpaceOnUse">
<stop stop-color="#FBC81F"/>
<stop offset="0.1875" stop-color="#FFF963"/>
</linearGradient>
<linearGradient id="paint5_linear_9_375" x1="-84.0285" y1="123.713" x2="403.59" y2="123.713" gradientUnits="userSpaceOnUse">
<stop stop-color="#FBC81F"/>
</linearGradient>
<linearGradient id="paint6_linear_9_375" x1="-84.0286" y1="123.713" x2="403.591" y2="123.713" gradientUnits="userSpaceOnUse">
<stop stop-color="#F9D61C"/>
</linearGradient>
<linearGradient id="paint7_linear_9_375" x1="-84.0286" y1="123.713" x2="403.59" y2="123.713" gradientUnits="userSpaceOnUse">
<stop stop-color="#F9BB1C"/>
</linearGradient>
<linearGradient id="paint8_linear_9_375" x1="-84.0285" y1="123.713" x2="403.59" y2="123.713" gradientUnits="userSpaceOnUse">
<stop stop-color="#F9C81C"/>
</linearGradient>
<linearGradient id="paint9_linear_9_375" x1="-200.945" y1="103.362" x2="438.078" y2="103.362" gradientUnits="userSpaceOnUse">
<stop stop-color="#FBC81F"/>
<stop offset="0.280899" stop-color="#F8B60E"/>
</linearGradient>
<linearGradient id="paint10_linear_9_375" x1="-263.623" y1="69.0712" x2="570.657" y2="69.0712" gradientUnits="userSpaceOnUse">
<stop stop-color="#FBC81F"/>
<stop offset="0.280899" stop-color="#F8B60E"/>
</linearGradient>
<linearGradient id="paint11_linear_9_375" x1="-70.7746" y1="-77.8762" x2="205.302" y2="-77.8762" gradientUnits="userSpaceOnUse">
<stop stop-color="#FBC81F"/>
<stop offset="0.280899" stop-color="#F89D0E"/>
</linearGradient>
<linearGradient id="paint12_linear_9_375" x1="-79.712" y1="121.581" x2="259.069" y2="121.581" gradientUnits="userSpaceOnUse">
<stop stop-color="#FBC81F"/>
<stop offset="0.307292" stop-color="#F8D30E"/>
</linearGradient>
<linearGradient id="paint13_linear_9_375" x1="-84.0286" y1="123.713" x2="403.59" y2="123.713" gradientUnits="userSpaceOnUse">
<stop stop-color="#FFBC10"/>
</linearGradient>
<linearGradient id="paint14_linear_9_375" x1="-84.0286" y1="123.713" x2="403.59" y2="123.713" gradientUnits="userSpaceOnUse">
<stop stop-color="#FBCD29"/>
</linearGradient>
<linearGradient id="paint15_linear_9_375" x1="-84.0286" y1="123.713" x2="403.59" y2="123.713" gradientUnits="userSpaceOnUse">
<stop stop-color="#F7C71D"/>
</linearGradient>
<linearGradient id="paint16_linear_9_375" x1="129.325" y1="111.43" x2="266.737" y2="111.43" gradientUnits="userSpaceOnUse">
<stop stop-color="#F7F45D"/>
<stop offset="0.280899" stop-color="#FCD73B"/>
</linearGradient>
<linearGradient id="paint17_linear_9_375" x1="87.4313" y1="123.767" x2="293.732" y2="123.767" gradientUnits="userSpaceOnUse">
<stop stop-color="#F7F45D"/>
<stop offset="0.280899" stop-color="#FCD73B"/>
</linearGradient>
<linearGradient id="paint18_linear_9_375" x1="95.0504" y1="137.465" x2="301.351" y2="137.465" gradientUnits="userSpaceOnUse">
<stop stop-color="#F7F45D"/>
<stop offset="0.280899" stop-color="#FCD73B"/>
</linearGradient>
<linearGradient id="paint19_linear_9_375" x1="113.894" y1="121.897" x2="275.258" y2="121.897" gradientUnits="userSpaceOnUse">
<stop offset="0.280899" stop-color="#FBDD52"/>
</linearGradient>
<linearGradient id="paint20_linear_9_375" x1="-84.0288" y1="123.713" x2="403.591" y2="123.713" gradientUnits="userSpaceOnUse">
<stop stop-color="#F6F23F"/>
<stop offset="0.280899" stop-color="#FCCB1C"/>
</linearGradient>
<linearGradient id="paint21_linear_9_375" x1="-84.0286" y1="123.713" x2="403.59" y2="123.713" gradientUnits="userSpaceOnUse">
<stop stop-color="#F6F23F"/>
<stop offset="0.280899" stop-color="#FCCB1C"/>
</linearGradient>
<linearGradient id="paint22_linear_9_375" x1="-84.0286" y1="123.713" x2="403.591" y2="123.713" gradientUnits="userSpaceOnUse">
<stop stop-color="#F6F23F"/>
<stop offset="0.280899" stop-color="#FCCB1C"/>
</linearGradient>
<linearGradient id="paint23_linear_9_375" x1="-84.0286" y1="123.713" x2="403.591" y2="123.713" gradientUnits="userSpaceOnUse">
<stop stop-color="#F6F23F"/>
<stop offset="0.280899" stop-color="#FCCB1C"/>
</linearGradient>
<linearGradient id="paint24_linear_9_375" x1="-84.0287" y1="123.713" x2="403.591" y2="123.713" gradientUnits="userSpaceOnUse">
<stop stop-color="#F6F23F"/>
<stop offset="0.280899" stop-color="#FCCB1C"/>
</linearGradient>
<linearGradient id="paint25_linear_9_375" x1="-84.0286" y1="123.713" x2="403.59" y2="123.713" gradientUnits="userSpaceOnUse">
<stop stop-color="#F9E421"/>
<stop offset="0.280899" stop-color="#FAB10B"/>
</linearGradient>
<linearGradient id="paint26_linear_9_375" x1="-84.0286" y1="123.713" x2="403.59" y2="123.713" gradientUnits="userSpaceOnUse">
<stop stop-color="#F9E421"/>
</linearGradient>
<linearGradient id="paint27_linear_9_375" x1="-84.0286" y1="123.713" x2="403.59" y2="123.713" gradientUnits="userSpaceOnUse">
<stop stop-color="#F9E421"/>
<stop offset="0.280899" stop-color="#FAB10B"/>
</linearGradient>
<linearGradient id="paint28_linear_9_375" x1="-84.0285" y1="123.713" x2="403.59" y2="123.713" gradientUnits="userSpaceOnUse">
<stop stop-color="#F9E421"/>
</linearGradient>
<linearGradient id="paint29_linear_9_375" x1="-84.0285" y1="123.713" x2="403.59" y2="123.713" gradientUnits="userSpaceOnUse">
<stop stop-color="#F6F232"/>
<stop offset="0.280899" stop-color="#FBC60F"/>
</linearGradient>
<linearGradient id="paint30_linear_9_375" x1="-84.0286" y1="123.713" x2="403.59" y2="123.713" gradientUnits="userSpaceOnUse">
<stop stop-color="#F6F232"/>
<stop offset="0.280899" stop-color="#FBC60F"/>
</linearGradient>
<linearGradient id="paint31_linear_9_375" x1="-84.0286" y1="123.713" x2="403.59" y2="123.713" gradientUnits="userSpaceOnUse">
<stop stop-color="#C7F632"/>
<stop offset="0.280899" stop-color="#FBC60F"/>
</linearGradient>
<linearGradient id="paint32_linear_9_375" x1="-84.0286" y1="123.713" x2="403.59" y2="123.713" gradientUnits="userSpaceOnUse">
<stop stop-color="#F6F232"/>
<stop offset="0.280899" stop-color="#FBC60F"/>
</linearGradient>
<linearGradient id="paint33_linear_9_375" x1="-84.0286" y1="123.713" x2="403.59" y2="123.713" gradientUnits="userSpaceOnUse">
<stop stop-color="#F6F232"/>
<stop offset="0.280899" stop-color="#FBC60F"/>
</linearGradient>
<linearGradient id="paint34_linear_9_375" x1="-84.0287" y1="123.713" x2="403.591" y2="123.713" gradientUnits="userSpaceOnUse">
<stop stop-color="#F6F34E"/>
<stop offset="0.280899" stop-color="#FBD12A"/>
</linearGradient>
<linearGradient id="paint35_linear_9_375" x1="-84.0286" y1="123.713" x2="403.591" y2="123.713" gradientUnits="userSpaceOnUse">
<stop stop-color="#F6F34E"/>
<stop offset="0.280899" stop-color="#FBD12A"/>
</linearGradient>
<linearGradient id="paint36_linear_9_375" x1="-84.0286" y1="123.713" x2="403.59" y2="123.713" gradientUnits="userSpaceOnUse">
<stop stop-color="#F6F34E"/>
<stop offset="0.280899" stop-color="#FBD12A"/>
</linearGradient>
<linearGradient id="paint37_linear_9_375" x1="-84.0286" y1="123.713" x2="403.59" y2="123.713" gradientUnits="userSpaceOnUse">
<stop stop-color="#F6F34E"/>
<stop offset="0.280899" stop-color="#FBD12A"/>
</linearGradient>
</defs>
</svg>
