<svg width="256" height="256" viewBox="0 0 256 256" fill="none" xmlns="http://www.w3.org/2000/svg">
<path d="M120.842 20.6621C66.0601 20.7872 36.9755 63.2288 29.2808 84.434L61.1955 77.8692L82.4202 102.409C92.5833 82.0269 112.269 76.4104 120.842 76.1499L137.109 48.7967L120.842 20.6621Z" fill="#1B1B1B"/>
<path d="M215.95 87.6662C198.565 35.2542 149.474 20.7848 127.102 20.1016L143.337 48.5894L126.944 76.6465C149.32 79.9527 160.808 97.0308 163.755 105.157L194.613 112.11L215.95 87.6662Z" fill="#F6B930"/>
<path d="M27.1139 91.6693C11.0098 144.496 42.5776 185.092 60.3745 198.786L63.6103 166.088L93.1279 152.902C76.8414 137.072 77.3536 116.439 79.6456 108.101L58.5669 84.325L27.1139 91.6693Z" fill="#F6B930"/>
<path d="M181.663 200.669C226.067 168.301 225.121 116.712 219.097 94.9636L196.985 119.091L165.553 111.67C169.096 134.204 156.363 150.359 149.554 155.62L152.175 187.409L181.663 200.669Z" fill="#1B1B1B"/>
<path d="M65.9289 202.444C110.636 234.385 158.723 216.817 177.178 204.04L147.402 190.721L144.21 158.312C124.217 168.974 104.949 162.036 97.8148 157.234L68.8421 170.006L65.9289 202.444Z" fill="#EED75F"/>
<g opacity="0.9">
<path d="M94.6188 141.928L92.116 138.209L100.633 137.531L94.6188 141.928Z" fill="url(#paint0_linear_15_31237)"/>
<path d="M91.3101 136.499L92.3896 127.769L100.642 137.525L100.633 137.563L95.849 138.295L91.3101 136.499Z" fill="url(#paint1_linear_15_31237)"/>
<path d="M126.624 113.949L101.617 97.883L96.9095 96.1037L123.857 86.689L126.624 113.949Z" fill="url(#paint2_linear_15_31237)"/>
<path d="M124.386 139.831L110.776 130.319L128.929 129.093L124.386 139.831" fill="url(#paint3_linear_15_31237)"/>
<path d="M118.615 153.925H110.713L106.972 150.464L124.386 139.831L118.615 153.925Z" fill="url(#paint4_linear_15_31237)"/>
<path d="M128.929 129.093L117.749 120.013L126.624 113.949L128.929 129.093" fill="url(#paint5_linear_15_31237)"/>
<path d="M106.972 150.464L110.776 130.319V130.319L124.386 139.831L106.972 150.464Z" fill="url(#paint6_linear_15_31237)"/>
<path d="M117.749 120.013L101.617 97.883L126.624 113.949L117.749 120.013Z" fill="url(#paint7_linear_15_31237)"/>
<path d="M110.776 130.319L117.749 120.013L128.929 129.093L110.776 130.319" fill="url(#paint8_linear_15_31237)"/>
<path d="M100.633 137.531L87.9545 127.769L110.776 130.319V130.319L100.633 137.531" fill="url(#paint9_linear_15_31237)"/>
<path d="M87.9545 127.769L91.758 118.06L117.749 120.013L87.9545 127.769Z" fill="url(#paint10_linear_15_31237)"/>
<path d="M91.758 118.06L92.2857 108.03L97.7155 95.548L101.617 97.883L91.758 118.06Z" fill="url(#paint11_linear_15_31237)"/>
<path d="M103.442 149.409L94.8734 141.629L100.633 137.531L106.972 150.464L103.442 149.409Z" fill="url(#paint12_linear_15_31237)"/>
<path d="M117.749 120.013L91.758 118.06L101.617 97.883L117.749 120.013Z" fill="url(#paint13_linear_15_31237)"/>
<path d="M110.776 130.319L87.9545 127.769L117.749 120.013L110.776 130.319" fill="url(#paint14_linear_15_31237)"/>
<path d="M106.972 150.464L100.633 137.531V137.531L110.776 130.319L106.972 150.464" fill="url(#paint15_linear_15_31237)"/>
<path d="M146.096 106.646L147.04 99.3952L150.274 100.295L146.096 106.646Z" fill="url(#paint16_linear_15_31237)"/>
<path d="M149.769 124.188L146.117 106.662L154.686 108.123L149.769 124.188Z" fill="url(#paint17_linear_15_31237)"/>
<path d="M151.89 128.035L148.238 110.509L156.807 111.97L151.89 128.035Z" fill="url(#paint18_linear_15_31237)"/>
<path d="M152.565 108.115L145.862 106.723L150.768 98.3693L152.565 108.115" fill="url(#paint19_linear_15_31237)"/>
<path d="M126.624 150.464L138.683 139.116L148.789 144.493L137.802 148.425L126.624 150.464Z" fill="url(#paint20_linear_15_31237)"/>
<path d="M132.329 102.995L139.212 89.1196L149.445 96.6411L132.329 102.995Z" fill="url(#paint21_linear_15_31237)"/>
<path d="M134.315 153.925H127.541L126.624 150.464L134.315 153.925Z" fill="url(#paint22_linear_15_31237)"/>
<path d="M141.415 121.521L132.329 102.995L146.096 106.646L141.415 121.521Z" fill="url(#paint23_linear_15_31237)"/>
<path d="M138.683 139.116L141.415 121.521L154.727 124.173L138.683 139.116Z" fill="url(#paint24_linear_15_31237)"/>
<path d="M122.603 153.925H118.615L124.386 139.831L126.624 150.464L122.603 153.925Z" fill="url(#paint25_linear_15_31237)"/>
<path d="M128.929 129.093L126.624 113.949L141.415 121.521L128.929 129.093" fill="url(#paint26_linear_15_31237)"/>
<path d="M126.624 113.949L123.857 86.689L132.329 102.995L126.624 113.949Z" fill="url(#paint27_linear_15_31237)"/>
<path d="M124.386 139.831L128.929 129.093L138.683 139.116L124.386 139.831Z" fill="url(#paint28_linear_15_31237)"/>
<path d="M126.624 150.464L124.386 139.831L138.683 139.116L126.624 150.464" fill="url(#paint29_linear_15_31237)"/>
<path d="M132.329 102.995L123.857 86.689L139.212 89.1196L132.329 102.995Z" fill="url(#paint30_linear_15_31237)"/>
<path d="M127.541 153.925H122.603L126.624 150.464L127.541 153.925Z" fill="url(#paint31_linear_15_31237)"/>
<path d="M141.415 121.521L126.624 113.949L132.329 102.995L141.415 121.521" fill="url(#paint32_linear_15_31237)"/>
<path d="M138.683 139.116L128.929 129.093L141.415 121.521L138.683 139.116" fill="url(#paint33_linear_15_31237)"/>
<path d="M151.462 140.261L148.789 144.578L138.683 139.116L154.727 124.173H154.728L151.462 140.261Z" fill="url(#paint34_linear_15_31237)"/>
<path d="M138.184 151.546L134.315 153.925L126.624 150.464L144.038 147.229L144.25 147.784L138.184 151.546Z" fill="url(#paint35_linear_15_31237)"/>
<path d="M154.728 124.173H154.727L141.415 121.521L146.096 106.646L154.728 124.173Z" fill="url(#paint36_linear_15_31237)"/>
<path d="M146.096 106.646L132.329 102.995L149.445 96.6411L146.096 106.646" fill="url(#paint37_linear_15_31237)"/>
</g>
<path fill-rule="evenodd" clip-rule="evenodd" d="M113.47 116.797L110.38 121.244L112.83 124.771L118.801 120.558L113.47 116.797ZM116.146 112.945L122.868 117.688L129.823 112.781L123.042 103.022L116.146 112.945ZM132.499 116.633L126.936 120.558L133.139 124.935L135.704 121.244L132.499 116.633ZM130.463 128.787L122.868 123.428L115.507 128.623L123.042 139.467L130.463 128.787ZM98.6912 129.123L104.165 121.244L98.6912 113.366L102.861 110.424L107.273 116.773L123.031 94.0946L123.061 94.1157L123.04 94.1301L123.059 94.1565L123.076 94.1314L123.051 94.0958L123.053 94.0946L138.811 116.773L143.223 110.424L147.392 113.366L141.918 121.244L147.392 129.123L143.223 132.065L138.811 125.716L123.053 148.394L123.051 148.393L123.076 148.357L123.059 148.332L123.04 148.359L123.061 148.373L123.031 148.394L107.273 125.716L102.861 132.065L98.6912 129.123Z" fill="#262626"/>
<path fill-rule="evenodd" clip-rule="evenodd" d="M86.9832 120.384C86.9832 140.238 102.956 156.334 122.658 156.334C142.361 156.334 158.334 140.238 158.334 120.384C158.334 100.529 142.361 84.4339 122.658 84.4339C102.956 84.4339 86.9832 100.529 86.9832 120.384ZM91.6494 120.384C91.6494 137.641 105.533 151.631 122.658 151.631C139.784 151.631 153.668 137.641 153.668 120.384C153.668 103.126 139.784 89.136 122.658 89.136C105.533 89.136 91.6494 103.126 91.6494 120.384Z" fill="#262626"/>
<defs>
<linearGradient id="paint0_linear_15_31237" x1="70.8049" y1="131.088" x2="137.194" y2="131.088" gradientUnits="userSpaceOnUse">
<stop stop-color="#FBC81F"/>
<stop offset="0.5" stop-color="#F8B60E"/>
</linearGradient>
<linearGradient id="paint1_linear_15_31237" x1="67.9581" y1="112.345" x2="140.705" y2="112.345" gradientUnits="userSpaceOnUse">
<stop stop-color="#FBC81F"/>
<stop offset="0.280899" stop-color="#F89D0E"/>
</linearGradient>
<linearGradient id="paint2_linear_15_31237" x1="63.3977" y1="119.18" x2="199.142" y2="119.18" gradientUnits="userSpaceOnUse">
<stop stop-color="#FBD249"/>
<stop offset="1" stop-color="#F8DF03"/>
</linearGradient>
<linearGradient id="paint3_linear_15_31237" x1="63.3977" y1="119.18" x2="199.142" y2="119.18" gradientUnits="userSpaceOnUse">
<stop stop-color="#FBC81F"/>
</linearGradient>
<linearGradient id="paint4_linear_15_31237" x1="63.3977" y1="119.18" x2="199.142" y2="119.18" gradientUnits="userSpaceOnUse">
<stop stop-color="#FBC81F"/>
<stop offset="0.1875" stop-color="#FFF963"/>
</linearGradient>
<linearGradient id="paint5_linear_15_31237" x1="63.3977" y1="119.18" x2="199.142" y2="119.18" gradientUnits="userSpaceOnUse">
<stop stop-color="#FBC81F"/>
</linearGradient>
<linearGradient id="paint6_linear_15_31237" x1="63.3977" y1="119.18" x2="199.142" y2="119.18" gradientUnits="userSpaceOnUse">
<stop stop-color="#F9D61C"/>
</linearGradient>
<linearGradient id="paint7_linear_15_31237" x1="63.3977" y1="119.18" x2="199.142" y2="119.18" gradientUnits="userSpaceOnUse">
<stop stop-color="#F9BB1C"/>
</linearGradient>
<linearGradient id="paint8_linear_15_31237" x1="63.3977" y1="119.18" x2="199.142" y2="119.18" gradientUnits="userSpaceOnUse">
<stop stop-color="#F9C81C"/>
</linearGradient>
<linearGradient id="paint9_linear_15_31237" x1="30.8503" y1="113.464" x2="208.743" y2="113.464" gradientUnits="userSpaceOnUse">
<stop stop-color="#FBC81F"/>
<stop offset="0.280899" stop-color="#F8B60E"/>
</linearGradient>
<linearGradient id="paint10_linear_15_31237" x1="13.4018" y1="103.833" x2="245.65" y2="103.833" gradientUnits="userSpaceOnUse">
<stop stop-color="#FBC81F"/>
<stop offset="0.280899" stop-color="#F8B60E"/>
</linearGradient>
<linearGradient id="paint11_linear_15_31237" x1="67.0873" y1="62.5617" x2="143.942" y2="62.5617" gradientUnits="userSpaceOnUse">
<stop stop-color="#FBC81F"/>
<stop offset="0.280899" stop-color="#F89D0E"/>
</linearGradient>
<linearGradient id="paint12_linear_15_31237" x1="64.5993" y1="118.581" x2="158.91" y2="118.581" gradientUnits="userSpaceOnUse">
<stop stop-color="#FBC81F"/>
<stop offset="0.307292" stop-color="#F8D30E"/>
</linearGradient>
<linearGradient id="paint13_linear_15_31237" x1="63.3977" y1="119.18" x2="199.142" y2="119.18" gradientUnits="userSpaceOnUse">
<stop stop-color="#FFBC10"/>
</linearGradient>
<linearGradient id="paint14_linear_15_31237" x1="63.3977" y1="119.18" x2="199.142" y2="119.18" gradientUnits="userSpaceOnUse">
<stop stop-color="#FBCD29"/>
</linearGradient>
<linearGradient id="paint15_linear_15_31237" x1="63.3977" y1="119.18" x2="199.142" y2="119.18" gradientUnits="userSpaceOnUse">
<stop stop-color="#F7C71D"/>
</linearGradient>
<linearGradient id="paint16_linear_15_31237" x1="122.791" y1="115.73" x2="161.044" y2="115.73" gradientUnits="userSpaceOnUse">
<stop stop-color="#F7F45D"/>
<stop offset="0.280899" stop-color="#FCD73B"/>
</linearGradient>
<linearGradient id="paint17_linear_15_31237" x1="111.129" y1="119.195" x2="168.559" y2="119.195" gradientUnits="userSpaceOnUse">
<stop stop-color="#F7F45D"/>
<stop offset="0.280899" stop-color="#FCD73B"/>
</linearGradient>
<linearGradient id="paint18_linear_15_31237" x1="113.25" y1="123.042" x2="170.68" y2="123.042" gradientUnits="userSpaceOnUse">
<stop stop-color="#F7F45D"/>
<stop offset="0.280899" stop-color="#FCD73B"/>
</linearGradient>
<linearGradient id="paint19_linear_15_31237" x1="118.496" y1="118.67" x2="163.416" y2="118.67" gradientUnits="userSpaceOnUse">
<stop offset="0.280899" stop-color="#FBDD52"/>
</linearGradient>
<linearGradient id="paint20_linear_15_31237" x1="63.3976" y1="119.18" x2="199.142" y2="119.18" gradientUnits="userSpaceOnUse">
<stop stop-color="#F6F23F"/>
<stop offset="0.280899" stop-color="#FCCB1C"/>
</linearGradient>
<linearGradient id="paint21_linear_15_31237" x1="63.3977" y1="119.18" x2="199.142" y2="119.18" gradientUnits="userSpaceOnUse">
<stop stop-color="#F6F23F"/>
<stop offset="0.280899" stop-color="#FCCB1C"/>
</linearGradient>
<linearGradient id="paint22_linear_15_31237" x1="63.3977" y1="119.18" x2="199.142" y2="119.18" gradientUnits="userSpaceOnUse">
<stop stop-color="#F6F23F"/>
<stop offset="0.280899" stop-color="#FCCB1C"/>
</linearGradient>
<linearGradient id="paint23_linear_15_31237" x1="63.3977" y1="119.18" x2="199.142" y2="119.18" gradientUnits="userSpaceOnUse">
<stop stop-color="#F6F23F"/>
<stop offset="0.280899" stop-color="#FCCB1C"/>
</linearGradient>
<linearGradient id="paint24_linear_15_31237" x1="63.3977" y1="119.18" x2="199.142" y2="119.18" gradientUnits="userSpaceOnUse">
<stop stop-color="#F6F23F"/>
<stop offset="0.280899" stop-color="#FCCB1C"/>
</linearGradient>
<linearGradient id="paint25_linear_15_31237" x1="63.3977" y1="119.18" x2="199.142" y2="119.18" gradientUnits="userSpaceOnUse">
<stop stop-color="#F9E421"/>
<stop offset="0.280899" stop-color="#FAB10B"/>
</linearGradient>
<linearGradient id="paint26_linear_15_31237" x1="63.3977" y1="119.18" x2="199.142" y2="119.18" gradientUnits="userSpaceOnUse">
<stop stop-color="#F9E421"/>
</linearGradient>
<linearGradient id="paint27_linear_15_31237" x1="63.3977" y1="119.18" x2="199.142" y2="119.18" gradientUnits="userSpaceOnUse">
<stop stop-color="#F9E421"/>
<stop offset="0.280899" stop-color="#FAB10B"/>
</linearGradient>
<linearGradient id="paint28_linear_15_31237" x1="63.3977" y1="119.18" x2="199.142" y2="119.18" gradientUnits="userSpaceOnUse">
<stop stop-color="#F9E421"/>
</linearGradient>
<linearGradient id="paint29_linear_15_31237" x1="63.3977" y1="119.18" x2="199.142" y2="119.18" gradientUnits="userSpaceOnUse">
<stop stop-color="#F6F232"/>
<stop offset="0.280899" stop-color="#FBC60F"/>
</linearGradient>
<linearGradient id="paint30_linear_15_31237" x1="63.3977" y1="119.18" x2="199.142" y2="119.18" gradientUnits="userSpaceOnUse">
<stop stop-color="#F6F232"/>
<stop offset="0.280899" stop-color="#FBC60F"/>
</linearGradient>
<linearGradient id="paint31_linear_15_31237" x1="63.3977" y1="119.18" x2="199.142" y2="119.18" gradientUnits="userSpaceOnUse">
<stop stop-color="#C7F632"/>
<stop offset="0.280899" stop-color="#FBC60F"/>
</linearGradient>
<linearGradient id="paint32_linear_15_31237" x1="63.3977" y1="119.18" x2="199.142" y2="119.18" gradientUnits="userSpaceOnUse">
<stop stop-color="#F6F232"/>
<stop offset="0.280899" stop-color="#FBC60F"/>
</linearGradient>
<linearGradient id="paint33_linear_15_31237" x1="63.3977" y1="119.18" x2="199.142" y2="119.18" gradientUnits="userSpaceOnUse">
<stop stop-color="#F6F232"/>
<stop offset="0.280899" stop-color="#FBC60F"/>
</linearGradient>
<linearGradient id="paint34_linear_15_31237" x1="63.3976" y1="119.18" x2="199.142" y2="119.18" gradientUnits="userSpaceOnUse">
<stop stop-color="#F6F34E"/>
<stop offset="0.280899" stop-color="#FBD12A"/>
</linearGradient>
<linearGradient id="paint35_linear_15_31237" x1="63.3977" y1="119.18" x2="199.142" y2="119.18" gradientUnits="userSpaceOnUse">
<stop stop-color="#F6F34E"/>
<stop offset="0.280899" stop-color="#FBD12A"/>
</linearGradient>
<linearGradient id="paint36_linear_15_31237" x1="63.3977" y1="119.18" x2="199.142" y2="119.18" gradientUnits="userSpaceOnUse">
<stop stop-color="#F6F34E"/>
<stop offset="0.280899" stop-color="#FBD12A"/>
</linearGradient>
<linearGradient id="paint37_linear_15_31237" x1="63.3977" y1="119.18" x2="199.142" y2="119.18" gradientUnits="userSpaceOnUse">
<stop stop-color="#F6F34E"/>
<stop offset="0.280899" stop-color="#FBD12A"/>
</linearGradient>
</defs>
</svg>
